<?xml version="1.0" encoding="utf-8" standalone="no"?>
<!DOCTYPE svg PUBLIC "-//W3C//DTD SVG 1.1//EN"
  "http://www.w3.org/Graphics/SVG/1.1/DTD/svg11.dtd">
<svg xmlns:xlink="http://www.w3.org/1999/xlink" width="864pt" height="576pt" viewBox="0 0 864 576" xmlns="http://www.w3.org/2000/svg" version="1.1">
 <metadata>
  <rdf:RDF xmlns:dc="http://purl.org/dc/elements/1.1/" xmlns:cc="http://creativecommons.org/ns#" xmlns:rdf="http://www.w3.org/1999/02/22-rdf-syntax-ns#">
   <cc:Work>
    <dc:type rdf:resource="http://purl.org/dc/dcmitype/StillImage"/>
    <dc:date>2024-10-01T21:08:56.987442</dc:date>
    <dc:format>image/svg+xml</dc:format>
    <dc:creator>
     <cc:Agent>
      <dc:title>Matplotlib v3.8.1, https://matplotlib.org/</dc:title>
     </cc:Agent>
    </dc:creator>
   </cc:Work>
  </rdf:RDF>
 </metadata>
 <defs>
  <style type="text/css">*{stroke-linejoin: round; stroke-linecap: butt}</style>
 </defs>
 <g id="figure_1">
  <g id="patch_1">
   <path d="M 0 576 
L 864 576 
L 864 0 
L 0 0 
z
" style="fill: #ffffff"/>
  </g>
  <g id="axes_1">
   <g id="patch_2">
    <path d="M 108 512.64 
L 777.6 512.64 
L 777.6 69.12 
L 108 69.12 
z
" style="fill: #ffffff"/>
   </g>
   <g id="matplotlib.axis_1">
    <g id="xtick_1">
     <g id="line2d_1">
      <path d="M 138.436364 512.64 
L 138.436364 69.12 
" clip-path="url(#p630a0877a7)" style="fill: none; stroke: #b0b0b0; stroke-width: 0.8; stroke-linecap: square"/>
     </g>
     <g id="line2d_2">
      <defs>
       <path id="m06cc3a948a" d="M 0 0 
L 0 3.5 
" style="stroke: #000000; stroke-width: 0.8"/>
      </defs>
      <g>
       <use xlink:href="#m06cc3a948a" x="138.436364" y="512.64" style="stroke: #000000; stroke-width: 0.8"/>
      </g>
     </g>
     <g id="text_1">
      <!-- USPTO -->
      <g transform="translate(121.598082 527.238438) scale(0.1 -0.1)">
       <defs>
        <path id="DejaVuSans-55" d="M 556 4666 
L 1191 4666 
L 1191 1831 
Q 1191 1081 1462 751 
Q 1734 422 2344 422 
Q 2950 422 3222 751 
Q 3494 1081 3494 1831 
L 3494 4666 
L 4128 4666 
L 4128 1753 
Q 4128 841 3676 375 
Q 3225 -91 2344 -91 
Q 1459 -91 1007 375 
Q 556 841 556 1753 
L 556 4666 
z
" transform="scale(0.015625)"/>
        <path id="DejaVuSans-53" d="M 3425 4513 
L 3425 3897 
Q 3066 4069 2747 4153 
Q 2428 4238 2131 4238 
Q 1616 4238 1336 4038 
Q 1056 3838 1056 3469 
Q 1056 3159 1242 3001 
Q 1428 2844 1947 2747 
L 2328 2669 
Q 3034 2534 3370 2195 
Q 3706 1856 3706 1288 
Q 3706 609 3251 259 
Q 2797 -91 1919 -91 
Q 1588 -91 1214 -16 
Q 841 59 441 206 
L 441 856 
Q 825 641 1194 531 
Q 1563 422 1919 422 
Q 2459 422 2753 634 
Q 3047 847 3047 1241 
Q 3047 1584 2836 1778 
Q 2625 1972 2144 2069 
L 1759 2144 
Q 1053 2284 737 2584 
Q 422 2884 422 3419 
Q 422 4038 858 4394 
Q 1294 4750 2059 4750 
Q 2388 4750 2728 4690 
Q 3069 4631 3425 4513 
z
" transform="scale(0.015625)"/>
        <path id="DejaVuSans-50" d="M 1259 4147 
L 1259 2394 
L 2053 2394 
Q 2494 2394 2734 2622 
Q 2975 2850 2975 3272 
Q 2975 3691 2734 3919 
Q 2494 4147 2053 4147 
L 1259 4147 
z
M 628 4666 
L 2053 4666 
Q 2838 4666 3239 4311 
Q 3641 3956 3641 3272 
Q 3641 2581 3239 2228 
Q 2838 1875 2053 1875 
L 1259 1875 
L 1259 0 
L 628 0 
L 628 4666 
z
" transform="scale(0.015625)"/>
        <path id="DejaVuSans-54" d="M -19 4666 
L 3928 4666 
L 3928 4134 
L 2272 4134 
L 2272 0 
L 1638 0 
L 1638 4134 
L -19 4134 
L -19 4666 
z
" transform="scale(0.015625)"/>
        <path id="DejaVuSans-4f" d="M 2522 4238 
Q 1834 4238 1429 3725 
Q 1025 3213 1025 2328 
Q 1025 1447 1429 934 
Q 1834 422 2522 422 
Q 3209 422 3611 934 
Q 4013 1447 4013 2328 
Q 4013 3213 3611 3725 
Q 3209 4238 2522 4238 
z
M 2522 4750 
Q 3503 4750 4090 4092 
Q 4678 3434 4678 2328 
Q 4678 1225 4090 567 
Q 3503 -91 2522 -91 
Q 1538 -91 948 565 
Q 359 1222 359 2328 
Q 359 3434 948 4092 
Q 1538 4750 2522 4750 
z
" transform="scale(0.015625)"/>
       </defs>
       <use xlink:href="#DejaVuSans-55"/>
       <use xlink:href="#DejaVuSans-53" x="73.193359"/>
       <use xlink:href="#DejaVuSans-50" x="136.669922"/>
       <use xlink:href="#DejaVuSans-54" x="196.972656"/>
       <use xlink:href="#DejaVuSans-4f" x="258.056641"/>
      </g>
     </g>
    </g>
    <g id="xtick_2">
     <g id="line2d_3">
      <path d="M 302.957248 512.64 
L 302.957248 69.12 
" clip-path="url(#p630a0877a7)" style="fill: none; stroke: #b0b0b0; stroke-width: 0.8; stroke-linecap: square"/>
     </g>
     <g id="line2d_4">
      <g>
       <use xlink:href="#m06cc3a948a" x="302.957248" y="512.64" style="stroke: #000000; stroke-width: 0.8"/>
      </g>
     </g>
     <g id="text_2">
      <!-- PubMed -->
      <g transform="translate(283.122092 527.238438) scale(0.1 -0.1)">
       <defs>
        <path id="DejaVuSans-75" d="M 544 1381 
L 544 3500 
L 1119 3500 
L 1119 1403 
Q 1119 906 1312 657 
Q 1506 409 1894 409 
Q 2359 409 2629 706 
Q 2900 1003 2900 1516 
L 2900 3500 
L 3475 3500 
L 3475 0 
L 2900 0 
L 2900 538 
Q 2691 219 2414 64 
Q 2138 -91 1772 -91 
Q 1169 -91 856 284 
Q 544 659 544 1381 
z
M 1991 3584 
L 1991 3584 
z
" transform="scale(0.015625)"/>
        <path id="DejaVuSans-62" d="M 3116 1747 
Q 3116 2381 2855 2742 
Q 2594 3103 2138 3103 
Q 1681 3103 1420 2742 
Q 1159 2381 1159 1747 
Q 1159 1113 1420 752 
Q 1681 391 2138 391 
Q 2594 391 2855 752 
Q 3116 1113 3116 1747 
z
M 1159 2969 
Q 1341 3281 1617 3432 
Q 1894 3584 2278 3584 
Q 2916 3584 3314 3078 
Q 3713 2572 3713 1747 
Q 3713 922 3314 415 
Q 2916 -91 2278 -91 
Q 1894 -91 1617 61 
Q 1341 213 1159 525 
L 1159 0 
L 581 0 
L 581 4863 
L 1159 4863 
L 1159 2969 
z
" transform="scale(0.015625)"/>
        <path id="DejaVuSans-4d" d="M 628 4666 
L 1569 4666 
L 2759 1491 
L 3956 4666 
L 4897 4666 
L 4897 0 
L 4281 0 
L 4281 4097 
L 3078 897 
L 2444 897 
L 1241 4097 
L 1241 0 
L 628 0 
L 628 4666 
z
" transform="scale(0.015625)"/>
        <path id="DejaVuSans-65" d="M 3597 1894 
L 3597 1613 
L 953 1613 
Q 991 1019 1311 708 
Q 1631 397 2203 397 
Q 2534 397 2845 478 
Q 3156 559 3463 722 
L 3463 178 
Q 3153 47 2828 -22 
Q 2503 -91 2169 -91 
Q 1331 -91 842 396 
Q 353 884 353 1716 
Q 353 2575 817 3079 
Q 1281 3584 2069 3584 
Q 2775 3584 3186 3129 
Q 3597 2675 3597 1894 
z
M 3022 2063 
Q 3016 2534 2758 2815 
Q 2500 3097 2075 3097 
Q 1594 3097 1305 2825 
Q 1016 2553 972 2059 
L 3022 2063 
z
" transform="scale(0.015625)"/>
        <path id="DejaVuSans-64" d="M 2906 2969 
L 2906 4863 
L 3481 4863 
L 3481 0 
L 2906 0 
L 2906 525 
Q 2725 213 2448 61 
Q 2172 -91 1784 -91 
Q 1150 -91 751 415 
Q 353 922 353 1747 
Q 353 2572 751 3078 
Q 1150 3584 1784 3584 
Q 2172 3584 2448 3432 
Q 2725 3281 2906 2969 
z
M 947 1747 
Q 947 1113 1208 752 
Q 1469 391 1925 391 
Q 2381 391 2643 752 
Q 2906 1113 2906 1747 
Q 2906 2381 2643 2742 
Q 2381 3103 1925 3103 
Q 1469 3103 1208 2742 
Q 947 2381 947 1747 
z
" transform="scale(0.015625)"/>
       </defs>
       <use xlink:href="#DejaVuSans-50"/>
       <use xlink:href="#DejaVuSans-75" x="58.552734"/>
       <use xlink:href="#DejaVuSans-62" x="121.931641"/>
       <use xlink:href="#DejaVuSans-4d" x="185.408203"/>
       <use xlink:href="#DejaVuSans-65" x="271.6875"/>
       <use xlink:href="#DejaVuSans-64" x="333.210938"/>
      </g>
     </g>
    </g>
    <g id="xtick_3">
     <g id="line2d_5">
      <path d="M 747.163636 512.64 
L 747.163636 69.12 
" clip-path="url(#p630a0877a7)" style="fill: none; stroke: #b0b0b0; stroke-width: 0.8; stroke-linecap: square"/>
     </g>
     <g id="line2d_6">
      <g>
       <use xlink:href="#m06cc3a948a" x="747.163636" y="512.64" style="stroke: #000000; stroke-width: 0.8"/>
      </g>
     </g>
     <g id="text_3">
      <!-- USPTOAndPubMed -->
      <g transform="translate(700.814418 527.238438) scale(0.1 -0.1)">
       <defs>
        <path id="DejaVuSans-41" d="M 2188 4044 
L 1331 1722 
L 3047 1722 
L 2188 4044 
z
M 1831 4666 
L 2547 4666 
L 4325 0 
L 3669 0 
L 3244 1197 
L 1141 1197 
L 716 0 
L 50 0 
L 1831 4666 
z
" transform="scale(0.015625)"/>
        <path id="DejaVuSans-6e" d="M 3513 2113 
L 3513 0 
L 2938 0 
L 2938 2094 
Q 2938 2591 2744 2837 
Q 2550 3084 2163 3084 
Q 1697 3084 1428 2787 
Q 1159 2491 1159 1978 
L 1159 0 
L 581 0 
L 581 3500 
L 1159 3500 
L 1159 2956 
Q 1366 3272 1645 3428 
Q 1925 3584 2291 3584 
Q 2894 3584 3203 3211 
Q 3513 2838 3513 2113 
z
" transform="scale(0.015625)"/>
       </defs>
       <use xlink:href="#DejaVuSans-55"/>
       <use xlink:href="#DejaVuSans-53" x="73.193359"/>
       <use xlink:href="#DejaVuSans-50" x="136.669922"/>
       <use xlink:href="#DejaVuSans-54" x="196.972656"/>
       <use xlink:href="#DejaVuSans-4f" x="258.056641"/>
       <use xlink:href="#DejaVuSans-41" x="335.017578"/>
       <use xlink:href="#DejaVuSans-6e" x="403.425781"/>
       <use xlink:href="#DejaVuSans-64" x="466.804688"/>
       <use xlink:href="#DejaVuSans-50" x="530.28125"/>
       <use xlink:href="#DejaVuSans-75" x="588.833984"/>
       <use xlink:href="#DejaVuSans-62" x="652.212891"/>
       <use xlink:href="#DejaVuSans-4d" x="715.689453"/>
       <use xlink:href="#DejaVuSans-65" x="801.96875"/>
       <use xlink:href="#DejaVuSans-64" x="863.492188"/>
      </g>
     </g>
    </g>
    <g id="text_4">
     <!-- Diversity Coefficient -->
     <g transform="translate(392.086719 540.916563) scale(0.1 -0.1)">
      <defs>
       <path id="DejaVuSans-44" d="M 1259 4147 
L 1259 519 
L 2022 519 
Q 2988 519 3436 956 
Q 3884 1394 3884 2338 
Q 3884 3275 3436 3711 
Q 2988 4147 2022 4147 
L 1259 4147 
z
M 628 4666 
L 1925 4666 
Q 3281 4666 3915 4102 
Q 4550 3538 4550 2338 
Q 4550 1131 3912 565 
Q 3275 0 1925 0 
L 628 0 
L 628 4666 
z
" transform="scale(0.015625)"/>
       <path id="DejaVuSans-69" d="M 603 3500 
L 1178 3500 
L 1178 0 
L 603 0 
L 603 3500 
z
M 603 4863 
L 1178 4863 
L 1178 4134 
L 603 4134 
L 603 4863 
z
" transform="scale(0.015625)"/>
       <path id="DejaVuSans-76" d="M 191 3500 
L 800 3500 
L 1894 563 
L 2988 3500 
L 3597 3500 
L 2284 0 
L 1503 0 
L 191 3500 
z
" transform="scale(0.015625)"/>
       <path id="DejaVuSans-72" d="M 2631 2963 
Q 2534 3019 2420 3045 
Q 2306 3072 2169 3072 
Q 1681 3072 1420 2755 
Q 1159 2438 1159 1844 
L 1159 0 
L 581 0 
L 581 3500 
L 1159 3500 
L 1159 2956 
Q 1341 3275 1631 3429 
Q 1922 3584 2338 3584 
Q 2397 3584 2469 3576 
Q 2541 3569 2628 3553 
L 2631 2963 
z
" transform="scale(0.015625)"/>
       <path id="DejaVuSans-73" d="M 2834 3397 
L 2834 2853 
Q 2591 2978 2328 3040 
Q 2066 3103 1784 3103 
Q 1356 3103 1142 2972 
Q 928 2841 928 2578 
Q 928 2378 1081 2264 
Q 1234 2150 1697 2047 
L 1894 2003 
Q 2506 1872 2764 1633 
Q 3022 1394 3022 966 
Q 3022 478 2636 193 
Q 2250 -91 1575 -91 
Q 1294 -91 989 -36 
Q 684 19 347 128 
L 347 722 
Q 666 556 975 473 
Q 1284 391 1588 391 
Q 1994 391 2212 530 
Q 2431 669 2431 922 
Q 2431 1156 2273 1281 
Q 2116 1406 1581 1522 
L 1381 1569 
Q 847 1681 609 1914 
Q 372 2147 372 2553 
Q 372 3047 722 3315 
Q 1072 3584 1716 3584 
Q 2034 3584 2315 3537 
Q 2597 3491 2834 3397 
z
" transform="scale(0.015625)"/>
       <path id="DejaVuSans-74" d="M 1172 4494 
L 1172 3500 
L 2356 3500 
L 2356 3053 
L 1172 3053 
L 1172 1153 
Q 1172 725 1289 603 
Q 1406 481 1766 481 
L 2356 481 
L 2356 0 
L 1766 0 
Q 1100 0 847 248 
Q 594 497 594 1153 
L 594 3053 
L 172 3053 
L 172 3500 
L 594 3500 
L 594 4494 
L 1172 4494 
z
" transform="scale(0.015625)"/>
       <path id="DejaVuSans-79" d="M 2059 -325 
Q 1816 -950 1584 -1140 
Q 1353 -1331 966 -1331 
L 506 -1331 
L 506 -850 
L 844 -850 
Q 1081 -850 1212 -737 
Q 1344 -625 1503 -206 
L 1606 56 
L 191 3500 
L 800 3500 
L 1894 763 
L 2988 3500 
L 3597 3500 
L 2059 -325 
z
" transform="scale(0.015625)"/>
       <path id="DejaVuSans-20" transform="scale(0.015625)"/>
       <path id="DejaVuSans-43" d="M 4122 4306 
L 4122 3641 
Q 3803 3938 3442 4084 
Q 3081 4231 2675 4231 
Q 1875 4231 1450 3742 
Q 1025 3253 1025 2328 
Q 1025 1406 1450 917 
Q 1875 428 2675 428 
Q 3081 428 3442 575 
Q 3803 722 4122 1019 
L 4122 359 
Q 3791 134 3420 21 
Q 3050 -91 2638 -91 
Q 1578 -91 968 557 
Q 359 1206 359 2328 
Q 359 3453 968 4101 
Q 1578 4750 2638 4750 
Q 3056 4750 3426 4639 
Q 3797 4528 4122 4306 
z
" transform="scale(0.015625)"/>
       <path id="DejaVuSans-6f" d="M 1959 3097 
Q 1497 3097 1228 2736 
Q 959 2375 959 1747 
Q 959 1119 1226 758 
Q 1494 397 1959 397 
Q 2419 397 2687 759 
Q 2956 1122 2956 1747 
Q 2956 2369 2687 2733 
Q 2419 3097 1959 3097 
z
M 1959 3584 
Q 2709 3584 3137 3096 
Q 3566 2609 3566 1747 
Q 3566 888 3137 398 
Q 2709 -91 1959 -91 
Q 1206 -91 779 398 
Q 353 888 353 1747 
Q 353 2609 779 3096 
Q 1206 3584 1959 3584 
z
" transform="scale(0.015625)"/>
       <path id="DejaVuSans-66" d="M 2375 4863 
L 2375 4384 
L 1825 4384 
Q 1516 4384 1395 4259 
Q 1275 4134 1275 3809 
L 1275 3500 
L 2222 3500 
L 2222 3053 
L 1275 3053 
L 1275 0 
L 697 0 
L 697 3053 
L 147 3053 
L 147 3500 
L 697 3500 
L 697 3744 
Q 697 4328 969 4595 
Q 1241 4863 1831 4863 
L 2375 4863 
z
" transform="scale(0.015625)"/>
       <path id="DejaVuSans-63" d="M 3122 3366 
L 3122 2828 
Q 2878 2963 2633 3030 
Q 2388 3097 2138 3097 
Q 1578 3097 1268 2742 
Q 959 2388 959 1747 
Q 959 1106 1268 751 
Q 1578 397 2138 397 
Q 2388 397 2633 464 
Q 2878 531 3122 666 
L 3122 134 
Q 2881 22 2623 -34 
Q 2366 -91 2075 -91 
Q 1284 -91 818 406 
Q 353 903 353 1747 
Q 353 2603 823 3093 
Q 1294 3584 2113 3584 
Q 2378 3584 2631 3529 
Q 2884 3475 3122 3366 
z
" transform="scale(0.015625)"/>
      </defs>
      <use xlink:href="#DejaVuSans-44"/>
      <use xlink:href="#DejaVuSans-69" x="77.001953"/>
      <use xlink:href="#DejaVuSans-76" x="104.785156"/>
      <use xlink:href="#DejaVuSans-65" x="163.964844"/>
      <use xlink:href="#DejaVuSans-72" x="225.488281"/>
      <use xlink:href="#DejaVuSans-73" x="266.601562"/>
      <use xlink:href="#DejaVuSans-69" x="318.701172"/>
      <use xlink:href="#DejaVuSans-74" x="346.484375"/>
      <use xlink:href="#DejaVuSans-79" x="385.693359"/>
      <use xlink:href="#DejaVuSans-20" x="444.873047"/>
      <use xlink:href="#DejaVuSans-43" x="476.660156"/>
      <use xlink:href="#DejaVuSans-6f" x="546.484375"/>
      <use xlink:href="#DejaVuSans-65" x="607.666016"/>
      <use xlink:href="#DejaVuSans-66" x="669.189453"/>
      <use xlink:href="#DejaVuSans-66" x="704.394531"/>
      <use xlink:href="#DejaVuSans-69" x="739.599609"/>
      <use xlink:href="#DejaVuSans-63" x="767.382812"/>
      <use xlink:href="#DejaVuSans-69" x="822.363281"/>
      <use xlink:href="#DejaVuSans-65" x="850.146484"/>
      <use xlink:href="#DejaVuSans-6e" x="911.669922"/>
      <use xlink:href="#DejaVuSans-74" x="975.048828"/>
     </g>
    </g>
   </g>
   <g id="matplotlib.axis_2">
    <g id="ytick_1">
     <g id="line2d_7">
      <path d="M 108 493.966849 
L 777.6 493.966849 
" clip-path="url(#p630a0877a7)" style="fill: none; stroke: #b0b0b0; stroke-width: 0.8; stroke-linecap: square"/>
     </g>
     <g id="line2d_8">
      <defs>
       <path id="m0d2583c497" d="M 0 0 
L -3.5 0 
" style="stroke: #000000; stroke-width: 0.8"/>
      </defs>
      <g>
       <use xlink:href="#m0d2583c497" x="108" y="493.966849" style="stroke: #000000; stroke-width: 0.8"/>
      </g>
     </g>
     <g id="text_5">
      <!-- −12 -->
      <g transform="translate(79.895313 497.766068) scale(0.1 -0.1)">
       <defs>
        <path id="DejaVuSans-2212" d="M 678 2272 
L 4684 2272 
L 4684 1741 
L 678 1741 
L 678 2272 
z
" transform="scale(0.015625)"/>
        <path id="DejaVuSans-31" d="M 794 531 
L 1825 531 
L 1825 4091 
L 703 3866 
L 703 4441 
L 1819 4666 
L 2450 4666 
L 2450 531 
L 3481 531 
L 3481 0 
L 794 0 
L 794 531 
z
" transform="scale(0.015625)"/>
        <path id="DejaVuSans-32" d="M 1228 531 
L 3431 531 
L 3431 0 
L 469 0 
L 469 531 
Q 828 903 1448 1529 
Q 2069 2156 2228 2338 
Q 2531 2678 2651 2914 
Q 2772 3150 2772 3378 
Q 2772 3750 2511 3984 
Q 2250 4219 1831 4219 
Q 1534 4219 1204 4116 
Q 875 4013 500 3803 
L 500 4441 
Q 881 4594 1212 4672 
Q 1544 4750 1819 4750 
Q 2544 4750 2975 4387 
Q 3406 4025 3406 3419 
Q 3406 3131 3298 2873 
Q 3191 2616 2906 2266 
Q 2828 2175 2409 1742 
Q 1991 1309 1228 531 
z
" transform="scale(0.015625)"/>
       </defs>
       <use xlink:href="#DejaVuSans-2212"/>
       <use xlink:href="#DejaVuSans-31" x="83.789062"/>
       <use xlink:href="#DejaVuSans-32" x="147.412109"/>
      </g>
     </g>
    </g>
    <g id="ytick_2">
     <g id="line2d_9">
      <path d="M 108 442.024606 
L 777.6 442.024606 
" clip-path="url(#p630a0877a7)" style="fill: none; stroke: #b0b0b0; stroke-width: 0.8; stroke-linecap: square"/>
     </g>
     <g id="line2d_10">
      <g>
       <use xlink:href="#m0d2583c497" x="108" y="442.024606" style="stroke: #000000; stroke-width: 0.8"/>
      </g>
     </g>
     <g id="text_6">
      <!-- −11 -->
      <g transform="translate(79.895313 445.823824) scale(0.1 -0.1)">
       <use xlink:href="#DejaVuSans-2212"/>
       <use xlink:href="#DejaVuSans-31" x="83.789062"/>
       <use xlink:href="#DejaVuSans-31" x="147.412109"/>
      </g>
     </g>
    </g>
    <g id="ytick_3">
     <g id="line2d_11">
      <path d="M 108 390.082362 
L 777.6 390.082362 
" clip-path="url(#p630a0877a7)" style="fill: none; stroke: #b0b0b0; stroke-width: 0.8; stroke-linecap: square"/>
     </g>
     <g id="line2d_12">
      <g>
       <use xlink:href="#m0d2583c497" x="108" y="390.082362" style="stroke: #000000; stroke-width: 0.8"/>
      </g>
     </g>
     <g id="text_7">
      <!-- −10 -->
      <g transform="translate(79.895313 393.881581) scale(0.1 -0.1)">
       <defs>
        <path id="DejaVuSans-30" d="M 2034 4250 
Q 1547 4250 1301 3770 
Q 1056 3291 1056 2328 
Q 1056 1369 1301 889 
Q 1547 409 2034 409 
Q 2525 409 2770 889 
Q 3016 1369 3016 2328 
Q 3016 3291 2770 3770 
Q 2525 4250 2034 4250 
z
M 2034 4750 
Q 2819 4750 3233 4129 
Q 3647 3509 3647 2328 
Q 3647 1150 3233 529 
Q 2819 -91 2034 -91 
Q 1250 -91 836 529 
Q 422 1150 422 2328 
Q 422 3509 836 4129 
Q 1250 4750 2034 4750 
z
" transform="scale(0.015625)"/>
       </defs>
       <use xlink:href="#DejaVuSans-2212"/>
       <use xlink:href="#DejaVuSans-31" x="83.789062"/>
       <use xlink:href="#DejaVuSans-30" x="147.412109"/>
      </g>
     </g>
    </g>
    <g id="ytick_4">
     <g id="line2d_13">
      <path d="M 108 338.140119 
L 777.6 338.140119 
" clip-path="url(#p630a0877a7)" style="fill: none; stroke: #b0b0b0; stroke-width: 0.8; stroke-linecap: square"/>
     </g>
     <g id="line2d_14">
      <g>
       <use xlink:href="#m0d2583c497" x="108" y="338.140119" style="stroke: #000000; stroke-width: 0.8"/>
      </g>
     </g>
     <g id="text_8">
      <!-- −9 -->
      <g transform="translate(86.257812 341.939338) scale(0.1 -0.1)">
       <defs>
        <path id="DejaVuSans-39" d="M 703 97 
L 703 672 
Q 941 559 1184 500 
Q 1428 441 1663 441 
Q 2288 441 2617 861 
Q 2947 1281 2994 2138 
Q 2813 1869 2534 1725 
Q 2256 1581 1919 1581 
Q 1219 1581 811 2004 
Q 403 2428 403 3163 
Q 403 3881 828 4315 
Q 1253 4750 1959 4750 
Q 2769 4750 3195 4129 
Q 3622 3509 3622 2328 
Q 3622 1225 3098 567 
Q 2575 -91 1691 -91 
Q 1453 -91 1209 -44 
Q 966 3 703 97 
z
M 1959 2075 
Q 2384 2075 2632 2365 
Q 2881 2656 2881 3163 
Q 2881 3666 2632 3958 
Q 2384 4250 1959 4250 
Q 1534 4250 1286 3958 
Q 1038 3666 1038 3163 
Q 1038 2656 1286 2365 
Q 1534 2075 1959 2075 
z
" transform="scale(0.015625)"/>
       </defs>
       <use xlink:href="#DejaVuSans-2212"/>
       <use xlink:href="#DejaVuSans-39" x="83.789062"/>
      </g>
     </g>
    </g>
    <g id="ytick_5">
     <g id="line2d_15">
      <path d="M 108 286.197876 
L 777.6 286.197876 
" clip-path="url(#p630a0877a7)" style="fill: none; stroke: #b0b0b0; stroke-width: 0.8; stroke-linecap: square"/>
     </g>
     <g id="line2d_16">
      <g>
       <use xlink:href="#m0d2583c497" x="108" y="286.197876" style="stroke: #000000; stroke-width: 0.8"/>
      </g>
     </g>
     <g id="text_9">
      <!-- −8 -->
      <g transform="translate(86.257812 289.997094) scale(0.1 -0.1)">
       <defs>
        <path id="DejaVuSans-38" d="M 2034 2216 
Q 1584 2216 1326 1975 
Q 1069 1734 1069 1313 
Q 1069 891 1326 650 
Q 1584 409 2034 409 
Q 2484 409 2743 651 
Q 3003 894 3003 1313 
Q 3003 1734 2745 1975 
Q 2488 2216 2034 2216 
z
M 1403 2484 
Q 997 2584 770 2862 
Q 544 3141 544 3541 
Q 544 4100 942 4425 
Q 1341 4750 2034 4750 
Q 2731 4750 3128 4425 
Q 3525 4100 3525 3541 
Q 3525 3141 3298 2862 
Q 3072 2584 2669 2484 
Q 3125 2378 3379 2068 
Q 3634 1759 3634 1313 
Q 3634 634 3220 271 
Q 2806 -91 2034 -91 
Q 1263 -91 848 271 
Q 434 634 434 1313 
Q 434 1759 690 2068 
Q 947 2378 1403 2484 
z
M 1172 3481 
Q 1172 3119 1398 2916 
Q 1625 2713 2034 2713 
Q 2441 2713 2670 2916 
Q 2900 3119 2900 3481 
Q 2900 3844 2670 4047 
Q 2441 4250 2034 4250 
Q 1625 4250 1398 4047 
Q 1172 3844 1172 3481 
z
" transform="scale(0.015625)"/>
       </defs>
       <use xlink:href="#DejaVuSans-2212"/>
       <use xlink:href="#DejaVuSans-38" x="83.789062"/>
      </g>
     </g>
    </g>
    <g id="ytick_6">
     <g id="line2d_17">
      <path d="M 108 234.255632 
L 777.6 234.255632 
" clip-path="url(#p630a0877a7)" style="fill: none; stroke: #b0b0b0; stroke-width: 0.8; stroke-linecap: square"/>
     </g>
     <g id="line2d_18">
      <g>
       <use xlink:href="#m0d2583c497" x="108" y="234.255632" style="stroke: #000000; stroke-width: 0.8"/>
      </g>
     </g>
     <g id="text_10">
      <!-- −7 -->
      <g transform="translate(86.257812 238.054851) scale(0.1 -0.1)">
       <defs>
        <path id="DejaVuSans-37" d="M 525 4666 
L 3525 4666 
L 3525 4397 
L 1831 0 
L 1172 0 
L 2766 4134 
L 525 4134 
L 525 4666 
z
" transform="scale(0.015625)"/>
       </defs>
       <use xlink:href="#DejaVuSans-2212"/>
       <use xlink:href="#DejaVuSans-37" x="83.789062"/>
      </g>
     </g>
    </g>
    <g id="ytick_7">
     <g id="line2d_19">
      <path d="M 108 182.313389 
L 777.6 182.313389 
" clip-path="url(#p630a0877a7)" style="fill: none; stroke: #b0b0b0; stroke-width: 0.8; stroke-linecap: square"/>
     </g>
     <g id="line2d_20">
      <g>
       <use xlink:href="#m0d2583c497" x="108" y="182.313389" style="stroke: #000000; stroke-width: 0.8"/>
      </g>
     </g>
     <g id="text_11">
      <!-- −6 -->
      <g transform="translate(86.257812 186.112608) scale(0.1 -0.1)">
       <defs>
        <path id="DejaVuSans-36" d="M 2113 2584 
Q 1688 2584 1439 2293 
Q 1191 2003 1191 1497 
Q 1191 994 1439 701 
Q 1688 409 2113 409 
Q 2538 409 2786 701 
Q 3034 994 3034 1497 
Q 3034 2003 2786 2293 
Q 2538 2584 2113 2584 
z
M 3366 4563 
L 3366 3988 
Q 3128 4100 2886 4159 
Q 2644 4219 2406 4219 
Q 1781 4219 1451 3797 
Q 1122 3375 1075 2522 
Q 1259 2794 1537 2939 
Q 1816 3084 2150 3084 
Q 2853 3084 3261 2657 
Q 3669 2231 3669 1497 
Q 3669 778 3244 343 
Q 2819 -91 2113 -91 
Q 1303 -91 875 529 
Q 447 1150 447 2328 
Q 447 3434 972 4092 
Q 1497 4750 2381 4750 
Q 2619 4750 2861 4703 
Q 3103 4656 3366 4563 
z
" transform="scale(0.015625)"/>
       </defs>
       <use xlink:href="#DejaVuSans-2212"/>
       <use xlink:href="#DejaVuSans-36" x="83.789062"/>
      </g>
     </g>
    </g>
    <g id="ytick_8">
     <g id="line2d_21">
      <path d="M 108 130.371145 
L 777.6 130.371145 
" clip-path="url(#p630a0877a7)" style="fill: none; stroke: #b0b0b0; stroke-width: 0.8; stroke-linecap: square"/>
     </g>
     <g id="line2d_22">
      <g>
       <use xlink:href="#m0d2583c497" x="108" y="130.371145" style="stroke: #000000; stroke-width: 0.8"/>
      </g>
     </g>
     <g id="text_12">
      <!-- −5 -->
      <g transform="translate(86.257812 134.170364) scale(0.1 -0.1)">
       <defs>
        <path id="DejaVuSans-35" d="M 691 4666 
L 3169 4666 
L 3169 4134 
L 1269 4134 
L 1269 2991 
Q 1406 3038 1543 3061 
Q 1681 3084 1819 3084 
Q 2600 3084 3056 2656 
Q 3513 2228 3513 1497 
Q 3513 744 3044 326 
Q 2575 -91 1722 -91 
Q 1428 -91 1123 -41 
Q 819 9 494 109 
L 494 744 
Q 775 591 1075 516 
Q 1375 441 1709 441 
Q 2250 441 2565 725 
Q 2881 1009 2881 1497 
Q 2881 1984 2565 2268 
Q 2250 2553 1709 2553 
Q 1456 2553 1204 2497 
Q 953 2441 691 2322 
L 691 4666 
z
" transform="scale(0.015625)"/>
       </defs>
       <use xlink:href="#DejaVuSans-2212"/>
       <use xlink:href="#DejaVuSans-35" x="83.789062"/>
      </g>
     </g>
    </g>
    <g id="ytick_9">
     <g id="line2d_23">
      <path d="M 108 78.428902 
L 777.6 78.428902 
" clip-path="url(#p630a0877a7)" style="fill: none; stroke: #b0b0b0; stroke-width: 0.8; stroke-linecap: square"/>
     </g>
     <g id="line2d_24">
      <g>
       <use xlink:href="#m0d2583c497" x="108" y="78.428902" style="stroke: #000000; stroke-width: 0.8"/>
      </g>
     </g>
     <g id="text_13">
      <!-- −4 -->
      <g transform="translate(86.257812 82.228121) scale(0.1 -0.1)">
       <defs>
        <path id="DejaVuSans-34" d="M 2419 4116 
L 825 1625 
L 2419 1625 
L 2419 4116 
z
M 2253 4666 
L 3047 4666 
L 3047 1625 
L 3713 1625 
L 3713 1100 
L 3047 1100 
L 3047 0 
L 2419 0 
L 2419 1100 
L 313 1100 
L 313 1709 
L 2253 4666 
z
" transform="scale(0.015625)"/>
       </defs>
       <use xlink:href="#DejaVuSans-2212"/>
       <use xlink:href="#DejaVuSans-34" x="83.789062"/>
      </g>
     </g>
    </g>
    <g id="text_14">
     <!-- Mean Log Likelihood of Correct Answer -->
     <g transform="translate(73.815625 388.068281) rotate(-90) scale(0.1 -0.1)">
      <defs>
       <path id="DejaVuSans-61" d="M 2194 1759 
Q 1497 1759 1228 1600 
Q 959 1441 959 1056 
Q 959 750 1161 570 
Q 1363 391 1709 391 
Q 2188 391 2477 730 
Q 2766 1069 2766 1631 
L 2766 1759 
L 2194 1759 
z
M 3341 1997 
L 3341 0 
L 2766 0 
L 2766 531 
Q 2569 213 2275 61 
Q 1981 -91 1556 -91 
Q 1019 -91 701 211 
Q 384 513 384 1019 
Q 384 1609 779 1909 
Q 1175 2209 1959 2209 
L 2766 2209 
L 2766 2266 
Q 2766 2663 2505 2880 
Q 2244 3097 1772 3097 
Q 1472 3097 1187 3025 
Q 903 2953 641 2809 
L 641 3341 
Q 956 3463 1253 3523 
Q 1550 3584 1831 3584 
Q 2591 3584 2966 3190 
Q 3341 2797 3341 1997 
z
" transform="scale(0.015625)"/>
       <path id="DejaVuSans-4c" d="M 628 4666 
L 1259 4666 
L 1259 531 
L 3531 531 
L 3531 0 
L 628 0 
L 628 4666 
z
" transform="scale(0.015625)"/>
       <path id="DejaVuSans-67" d="M 2906 1791 
Q 2906 2416 2648 2759 
Q 2391 3103 1925 3103 
Q 1463 3103 1205 2759 
Q 947 2416 947 1791 
Q 947 1169 1205 825 
Q 1463 481 1925 481 
Q 2391 481 2648 825 
Q 2906 1169 2906 1791 
z
M 3481 434 
Q 3481 -459 3084 -895 
Q 2688 -1331 1869 -1331 
Q 1566 -1331 1297 -1286 
Q 1028 -1241 775 -1147 
L 775 -588 
Q 1028 -725 1275 -790 
Q 1522 -856 1778 -856 
Q 2344 -856 2625 -561 
Q 2906 -266 2906 331 
L 2906 616 
Q 2728 306 2450 153 
Q 2172 0 1784 0 
Q 1141 0 747 490 
Q 353 981 353 1791 
Q 353 2603 747 3093 
Q 1141 3584 1784 3584 
Q 2172 3584 2450 3431 
Q 2728 3278 2906 2969 
L 2906 3500 
L 3481 3500 
L 3481 434 
z
" transform="scale(0.015625)"/>
       <path id="DejaVuSans-6b" d="M 581 4863 
L 1159 4863 
L 1159 1991 
L 2875 3500 
L 3609 3500 
L 1753 1863 
L 3688 0 
L 2938 0 
L 1159 1709 
L 1159 0 
L 581 0 
L 581 4863 
z
" transform="scale(0.015625)"/>
       <path id="DejaVuSans-6c" d="M 603 4863 
L 1178 4863 
L 1178 0 
L 603 0 
L 603 4863 
z
" transform="scale(0.015625)"/>
       <path id="DejaVuSans-68" d="M 3513 2113 
L 3513 0 
L 2938 0 
L 2938 2094 
Q 2938 2591 2744 2837 
Q 2550 3084 2163 3084 
Q 1697 3084 1428 2787 
Q 1159 2491 1159 1978 
L 1159 0 
L 581 0 
L 581 4863 
L 1159 4863 
L 1159 2956 
Q 1366 3272 1645 3428 
Q 1925 3584 2291 3584 
Q 2894 3584 3203 3211 
Q 3513 2838 3513 2113 
z
" transform="scale(0.015625)"/>
       <path id="DejaVuSans-77" d="M 269 3500 
L 844 3500 
L 1563 769 
L 2278 3500 
L 2956 3500 
L 3675 769 
L 4391 3500 
L 4966 3500 
L 4050 0 
L 3372 0 
L 2619 2869 
L 1863 0 
L 1184 0 
L 269 3500 
z
" transform="scale(0.015625)"/>
      </defs>
      <use xlink:href="#DejaVuSans-4d"/>
      <use xlink:href="#DejaVuSans-65" x="86.279297"/>
      <use xlink:href="#DejaVuSans-61" x="147.802734"/>
      <use xlink:href="#DejaVuSans-6e" x="209.082031"/>
      <use xlink:href="#DejaVuSans-20" x="272.460938"/>
      <use xlink:href="#DejaVuSans-4c" x="304.248047"/>
      <use xlink:href="#DejaVuSans-6f" x="358.210938"/>
      <use xlink:href="#DejaVuSans-67" x="419.392578"/>
      <use xlink:href="#DejaVuSans-20" x="482.869141"/>
      <use xlink:href="#DejaVuSans-4c" x="514.65625"/>
      <use xlink:href="#DejaVuSans-69" x="570.369141"/>
      <use xlink:href="#DejaVuSans-6b" x="598.152344"/>
      <use xlink:href="#DejaVuSans-65" x="652.4375"/>
      <use xlink:href="#DejaVuSans-6c" x="713.960938"/>
      <use xlink:href="#DejaVuSans-69" x="741.744141"/>
      <use xlink:href="#DejaVuSans-68" x="769.527344"/>
      <use xlink:href="#DejaVuSans-6f" x="832.90625"/>
      <use xlink:href="#DejaVuSans-6f" x="894.087891"/>
      <use xlink:href="#DejaVuSans-64" x="955.269531"/>
      <use xlink:href="#DejaVuSans-20" x="1018.746094"/>
      <use xlink:href="#DejaVuSans-6f" x="1050.533203"/>
      <use xlink:href="#DejaVuSans-66" x="1111.714844"/>
      <use xlink:href="#DejaVuSans-20" x="1146.919922"/>
      <use xlink:href="#DejaVuSans-43" x="1178.707031"/>
      <use xlink:href="#DejaVuSans-6f" x="1248.53125"/>
      <use xlink:href="#DejaVuSans-72" x="1309.712891"/>
      <use xlink:href="#DejaVuSans-72" x="1349.076172"/>
      <use xlink:href="#DejaVuSans-65" x="1387.939453"/>
      <use xlink:href="#DejaVuSans-63" x="1449.462891"/>
      <use xlink:href="#DejaVuSans-74" x="1504.443359"/>
      <use xlink:href="#DejaVuSans-20" x="1543.652344"/>
      <use xlink:href="#DejaVuSans-41" x="1575.439453"/>
      <use xlink:href="#DejaVuSans-6e" x="1643.847656"/>
      <use xlink:href="#DejaVuSans-73" x="1707.226562"/>
      <use xlink:href="#DejaVuSans-77" x="1759.326172"/>
      <use xlink:href="#DejaVuSans-65" x="1841.113281"/>
      <use xlink:href="#DejaVuSans-72" x="1902.636719"/>
     </g>
    </g>
   </g>
   <g id="line2d_25">
    <path d="M 138.436364 419.394026 
L 302.957248 492.48 
L 747.163636 482.189645 
" clip-path="url(#p630a0877a7)" style="fill: none; stroke: #0000ff; stroke-width: 1.5; stroke-linecap: square"/>
    <defs>
     <path id="m1875b8f5ff" d="M 0 3 
C 0.795609 3 1.55874 2.683901 2.12132 2.12132 
C 2.683901 1.55874 3 0.795609 3 0 
C 3 -0.795609 2.683901 -1.55874 2.12132 -2.12132 
C 1.55874 -2.683901 0.795609 -3 0 -3 
C -0.795609 -3 -1.55874 -2.683901 -2.12132 -2.12132 
C -2.683901 -1.55874 -3 -0.795609 -3 0 
C -3 0.795609 -2.683901 1.55874 -2.12132 2.12132 
C -1.55874 2.683901 -0.795609 3 0 3 
z
" style="stroke: #0000ff"/>
    </defs>
    <g clip-path="url(#p630a0877a7)">
     <use xlink:href="#m1875b8f5ff" x="138.436364" y="419.394026" style="fill: #0000ff; stroke: #0000ff"/>
     <use xlink:href="#m1875b8f5ff" x="302.957248" y="492.48" style="fill: #0000ff; stroke: #0000ff"/>
     <use xlink:href="#m1875b8f5ff" x="747.163636" y="482.189645" style="fill: #0000ff; stroke: #0000ff"/>
    </g>
   </g>
   <g id="line2d_26">
    <path d="M 138.436364 444.898153 
L 144.585124 445.370249 
L 150.733884 445.842344 
L 156.882645 446.31444 
L 163.031405 446.786536 
L 169.180165 447.258631 
L 175.328926 447.730727 
L 181.477686 448.202822 
L 187.626446 448.674918 
L 193.775207 449.147014 
L 199.923967 449.619109 
L 206.072727 450.091205 
L 212.221488 450.5633 
L 218.370248 451.035396 
L 224.519008 451.507492 
L 230.667769 451.979587 
L 236.816529 452.451683 
L 242.965289 452.923778 
L 249.11405 453.395874 
L 255.26281 453.86797 
L 261.41157 454.340065 
L 267.560331 454.812161 
L 273.709091 455.284256 
L 279.857851 455.756352 
L 286.006612 456.228448 
L 292.155372 456.700543 
L 298.304132 457.172639 
L 304.452893 457.644734 
L 310.601653 458.11683 
L 316.750413 458.588926 
L 322.899174 459.061021 
L 329.047934 459.533117 
L 335.196694 460.005212 
L 341.345455 460.477308 
L 347.494215 460.949404 
L 353.642975 461.421499 
L 359.791736 461.893595 
L 365.940496 462.365691 
L 372.089256 462.837786 
L 378.238017 463.309882 
L 384.386777 463.781977 
L 390.535537 464.254073 
L 396.684298 464.726169 
L 402.833058 465.198264 
L 408.981818 465.67036 
L 415.130579 466.142455 
L 421.279339 466.614551 
L 427.428099 467.086647 
L 433.57686 467.558742 
L 439.72562 468.030838 
L 445.87438 468.502933 
L 452.02314 468.975029 
L 458.171901 469.447125 
L 464.320661 469.91922 
L 470.469421 470.391316 
L 476.618182 470.863411 
L 482.766942 471.335507 
L 488.915702 471.807603 
L 495.064463 472.279698 
L 501.213223 472.751794 
L 507.361983 473.223889 
L 513.510744 473.695985 
L 519.659504 474.168081 
L 525.808264 474.640176 
L 531.957025 475.112272 
L 538.105785 475.584367 
L 544.254545 476.056463 
L 550.403306 476.528559 
L 556.552066 477.000654 
L 562.700826 477.47275 
L 568.849587 477.944845 
L 574.998347 478.416941 
L 581.147107 478.889037 
L 587.295868 479.361132 
L 593.444628 479.833228 
L 599.593388 480.305323 
L 605.742149 480.777419 
L 611.890909 481.249515 
L 618.039669 481.72161 
L 624.18843 482.193706 
L 630.33719 482.665801 
L 636.48595 483.137897 
L 642.634711 483.609993 
L 648.783471 484.082088 
L 654.932231 484.554184 
L 661.080992 485.026279 
L 667.229752 485.498375 
L 673.378512 485.970471 
L 679.527273 486.442566 
L 685.676033 486.914662 
L 691.824793 487.386758 
L 697.973554 487.858853 
L 704.122314 488.330949 
L 710.271074 488.803044 
L 716.419835 489.27514 
L 722.568595 489.747236 
L 728.717355 490.219331 
L 734.866116 490.691427 
L 741.014876 491.163522 
L 747.163636 491.635618 
" clip-path="url(#p630a0877a7)" style="fill: none; stroke-dasharray: 5.55,2.4; stroke-dashoffset: 0; stroke: #0000ff; stroke-width: 1.5"/>
   </g>
   <g id="line2d_27">
    <path d="M 138.436364 170.249056 
L 302.957248 136.59715 
" clip-path="url(#p630a0877a7)" style="fill: none; stroke: #008000; stroke-width: 1.5; stroke-linecap: square"/>
    <defs>
     <path id="mea343c4b1a" d="M -3 3 
L 3 3 
L 3 -3 
L -3 -3 
z
" style="stroke: #008000; stroke-linejoin: miter"/>
    </defs>
    <g clip-path="url(#p630a0877a7)">
     <use xlink:href="#mea343c4b1a" x="138.436364" y="170.249056" style="fill: #008000; stroke: #008000; stroke-linejoin: miter"/>
     <use xlink:href="#mea343c4b1a" x="302.957248" y="136.59715" style="fill: #008000; stroke: #008000; stroke-linejoin: miter"/>
    </g>
   </g>
   <g id="line2d_28">
    <path d="M 138.436364 170.249056 
L 140.098191 169.909138 
L 141.760018 169.569219 
L 143.421845 169.229301 
L 145.083672 168.889383 
L 146.745499 168.549465 
L 148.407326 168.209546 
L 150.069153 167.869628 
L 151.730981 167.52971 
L 153.392808 167.189792 
L 155.054635 166.849873 
L 156.716462 166.509955 
L 158.378289 166.170037 
L 160.040116 165.830119 
L 161.701943 165.490201 
L 163.36377 165.150282 
L 165.025597 164.810364 
L 166.687425 164.470446 
L 168.349252 164.130528 
L 170.011079 163.790609 
L 171.672906 163.450691 
L 173.334733 163.110773 
L 174.99656 162.770855 
L 176.658387 162.430936 
L 178.320214 162.091018 
L 179.982042 161.7511 
L 181.643869 161.411182 
L 183.305696 161.071263 
L 184.967523 160.731345 
L 186.62935 160.391427 
L 188.291177 160.051509 
L 189.953004 159.71159 
L 191.614831 159.371672 
L 193.276658 159.031754 
L 194.938486 158.691836 
L 196.600313 158.351917 
L 198.26214 158.011999 
L 199.923967 157.672081 
L 201.585794 157.332163 
L 203.247621 156.992245 
L 204.909448 156.652326 
L 206.571275 156.312408 
L 208.233103 155.97249 
L 209.89493 155.632572 
L 211.556757 155.292653 
L 213.218584 154.952735 
L 214.880411 154.612817 
L 216.542238 154.272899 
L 218.204065 153.93298 
L 219.865892 153.593062 
L 221.527719 153.253144 
L 223.189547 152.913226 
L 224.851374 152.573307 
L 226.513201 152.233389 
L 228.175028 151.893471 
L 229.836855 151.553553 
L 231.498682 151.213634 
L 233.160509 150.873716 
L 234.822336 150.533798 
L 236.484164 150.19388 
L 238.145991 149.853962 
L 239.807818 149.514043 
L 241.469645 149.174125 
L 243.131472 148.834207 
L 244.793299 148.494289 
L 246.455126 148.15437 
L 248.116953 147.814452 
L 249.77878 147.474534 
L 251.440608 147.134616 
L 253.102435 146.794697 
L 254.764262 146.454779 
L 256.426089 146.114861 
L 258.087916 145.774943 
L 259.749743 145.435024 
L 261.41157 145.095106 
L 263.073397 144.755188 
L 264.735224 144.41527 
L 266.397052 144.075351 
L 268.058879 143.735433 
L 269.720706 143.395515 
L 271.382533 143.055597 
L 273.04436 142.715678 
L 274.706187 142.37576 
L 276.368014 142.035842 
L 278.029841 141.695924 
L 279.691669 141.356006 
L 281.353496 141.016087 
L 283.015323 140.676169 
L 284.67715 140.336251 
L 286.338977 139.996333 
L 288.000804 139.656414 
L 289.662631 139.316496 
L 291.324458 138.976578 
L 292.986285 138.63666 
L 294.648113 138.296741 
L 296.30994 137.956823 
L 297.971767 137.616905 
L 299.633594 137.276987 
L 301.295421 136.937068 
L 302.957248 136.59715 
" clip-path="url(#p630a0877a7)" style="fill: none; stroke-dasharray: 5.55,2.4; stroke-dashoffset: 0; stroke: #008000; stroke-width: 1.5"/>
   </g>
   <g id="line2d_29">
    <path d="M 138.436364 131.734377 
L 302.957248 90.246209 
" clip-path="url(#p630a0877a7)" style="fill: none; stroke: #ff0000; stroke-width: 1.5; stroke-linecap: square"/>
    <defs>
     <path id="m81d788c82c" d="M 0 -3 
L -3 3 
L 3 3 
z
" style="stroke: #ff0000; stroke-linejoin: miter"/>
    </defs>
    <g clip-path="url(#p630a0877a7)">
     <use xlink:href="#m81d788c82c" x="138.436364" y="131.734377" style="fill: #ff0000; stroke: #ff0000; stroke-linejoin: miter"/>
     <use xlink:href="#m81d788c82c" x="302.957248" y="90.246209" style="fill: #ff0000; stroke: #ff0000; stroke-linejoin: miter"/>
    </g>
   </g>
   <g id="line2d_30">
    <path d="M 138.436364 131.734377 
L 140.098191 131.315304 
L 141.760018 130.896232 
L 143.421845 130.477159 
L 145.083672 130.058087 
L 146.745499 129.639015 
L 148.407326 129.219942 
L 150.069153 128.80087 
L 151.730981 128.381797 
L 153.392808 127.962725 
L 155.054635 127.543653 
L 156.716462 127.12458 
L 158.378289 126.705508 
L 160.040116 126.286435 
L 161.701943 125.867363 
L 163.36377 125.448291 
L 165.025597 125.029218 
L 166.687425 124.610146 
L 168.349252 124.191073 
L 170.011079 123.772001 
L 171.672906 123.352929 
L 173.334733 122.933856 
L 174.99656 122.514784 
L 176.658387 122.095711 
L 178.320214 121.676639 
L 179.982042 121.257567 
L 181.643869 120.838494 
L 183.305696 120.419422 
L 184.967523 120.000349 
L 186.62935 119.581277 
L 188.291177 119.162205 
L 189.953004 118.743132 
L 191.614831 118.32406 
L 193.276658 117.904988 
L 194.938486 117.485915 
L 196.600313 117.066843 
L 198.26214 116.64777 
L 199.923967 116.228698 
L 201.585794 115.809626 
L 203.247621 115.390553 
L 204.909448 114.971481 
L 206.571275 114.552408 
L 208.233103 114.133336 
L 209.89493 113.714264 
L 211.556757 113.295191 
L 213.218584 112.876119 
L 214.880411 112.457046 
L 216.542238 112.037974 
L 218.204065 111.618902 
L 219.865892 111.199829 
L 221.527719 110.780757 
L 223.189547 110.361684 
L 224.851374 109.942612 
L 226.513201 109.52354 
L 228.175028 109.104467 
L 229.836855 108.685395 
L 231.498682 108.266322 
L 233.160509 107.84725 
L 234.822336 107.428178 
L 236.484164 107.009105 
L 238.145991 106.590033 
L 239.807818 106.17096 
L 241.469645 105.751888 
L 243.131472 105.332816 
L 244.793299 104.913743 
L 246.455126 104.494671 
L 248.116953 104.075598 
L 249.77878 103.656526 
L 251.440608 103.237454 
L 253.102435 102.818381 
L 254.764262 102.399309 
L 256.426089 101.980236 
L 258.087916 101.561164 
L 259.749743 101.142092 
L 261.41157 100.723019 
L 263.073397 100.303947 
L 264.735224 99.884874 
L 266.397052 99.465802 
L 268.058879 99.04673 
L 269.720706 98.627657 
L 271.382533 98.208585 
L 273.04436 97.789512 
L 274.706187 97.37044 
L 276.368014 96.951368 
L 278.029841 96.532295 
L 279.691669 96.113223 
L 281.353496 95.69415 
L 283.015323 95.275078 
L 284.67715 94.856006 
L 286.338977 94.436933 
L 288.000804 94.017861 
L 289.662631 93.598788 
L 291.324458 93.179716 
L 292.986285 92.760644 
L 294.648113 92.341571 
L 296.30994 91.922499 
L 297.971767 91.503426 
L 299.633594 91.084354 
L 301.295421 90.665282 
L 302.957248 90.246209 
" clip-path="url(#p630a0877a7)" style="fill: none; stroke-dasharray: 5.55,2.4; stroke-dashoffset: 0; stroke: #ff0000; stroke-width: 1.5"/>
   </g>
   <g id="line2d_31">
    <path d="M 138.436364 162.285289 
L 302.957248 118.017613 
" clip-path="url(#p630a0877a7)" style="fill: none; stroke: #00bfbf; stroke-width: 1.5; stroke-linecap: square"/>
    <defs>
     <path id="m5d9a2c22c0" d="M -0 4.242641 
L 4.242641 0 
L 0 -4.242641 
L -4.242641 -0 
z
" style="stroke: #00bfbf; stroke-linejoin: miter"/>
    </defs>
    <g clip-path="url(#p630a0877a7)">
     <use xlink:href="#m5d9a2c22c0" x="138.436364" y="162.285289" style="fill: #00bfbf; stroke: #00bfbf; stroke-linejoin: miter"/>
     <use xlink:href="#m5d9a2c22c0" x="302.957248" y="118.017613" style="fill: #00bfbf; stroke: #00bfbf; stroke-linejoin: miter"/>
    </g>
   </g>
   <g id="line2d_32">
    <path d="M 138.436364 162.285289 
L 140.098191 161.838141 
L 141.760018 161.390992 
L 143.421845 160.943844 
L 145.083672 160.496696 
L 146.745499 160.049548 
L 148.407326 159.602399 
L 150.069153 159.155251 
L 151.730981 158.708103 
L 153.392808 158.260955 
L 155.054635 157.813807 
L 156.716462 157.366658 
L 158.378289 156.91951 
L 160.040116 156.472362 
L 161.701943 156.025214 
L 163.36377 155.578065 
L 165.025597 155.130917 
L 166.687425 154.683769 
L 168.349252 154.236621 
L 170.011079 153.789472 
L 171.672906 153.342324 
L 173.334733 152.895176 
L 174.99656 152.448028 
L 176.658387 152.000879 
L 178.320214 151.553731 
L 179.982042 151.106583 
L 181.643869 150.659435 
L 183.305696 150.212286 
L 184.967523 149.765138 
L 186.62935 149.31799 
L 188.291177 148.870842 
L 189.953004 148.423694 
L 191.614831 147.976545 
L 193.276658 147.529397 
L 194.938486 147.082249 
L 196.600313 146.635101 
L 198.26214 146.187952 
L 199.923967 145.740804 
L 201.585794 145.293656 
L 203.247621 144.846508 
L 204.909448 144.399359 
L 206.571275 143.952211 
L 208.233103 143.505063 
L 209.89493 143.057915 
L 211.556757 142.610766 
L 213.218584 142.163618 
L 214.880411 141.71647 
L 216.542238 141.269322 
L 218.204065 140.822173 
L 219.865892 140.375025 
L 221.527719 139.927877 
L 223.189547 139.480729 
L 224.851374 139.033581 
L 226.513201 138.586432 
L 228.175028 138.139284 
L 229.836855 137.692136 
L 231.498682 137.244988 
L 233.160509 136.797839 
L 234.822336 136.350691 
L 236.484164 135.903543 
L 238.145991 135.456395 
L 239.807818 135.009246 
L 241.469645 134.562098 
L 243.131472 134.11495 
L 244.793299 133.667802 
L 246.455126 133.220653 
L 248.116953 132.773505 
L 249.77878 132.326357 
L 251.440608 131.879209 
L 253.102435 131.43206 
L 254.764262 130.984912 
L 256.426089 130.537764 
L 258.087916 130.090616 
L 259.749743 129.643468 
L 261.41157 129.196319 
L 263.073397 128.749171 
L 264.735224 128.302023 
L 266.397052 127.854875 
L 268.058879 127.407726 
L 269.720706 126.960578 
L 271.382533 126.51343 
L 273.04436 126.066282 
L 274.706187 125.619133 
L 276.368014 125.171985 
L 278.029841 124.724837 
L 279.691669 124.277689 
L 281.353496 123.83054 
L 283.015323 123.383392 
L 284.67715 122.936244 
L 286.338977 122.489096 
L 288.000804 122.041947 
L 289.662631 121.594799 
L 291.324458 121.147651 
L 292.986285 120.700503 
L 294.648113 120.253355 
L 296.30994 119.806206 
L 297.971767 119.359058 
L 299.633594 118.91191 
L 301.295421 118.464762 
L 302.957248 118.017613 
" clip-path="url(#p630a0877a7)" style="fill: none; stroke-dasharray: 5.55,2.4; stroke-dashoffset: 0; stroke: #00bfbf; stroke-width: 1.5"/>
   </g>
   <g id="line2d_33">
    <path d="M 138.436364 174.823625 
L 302.957248 89.28 
" clip-path="url(#p630a0877a7)" style="fill: none; stroke: #bf00bf; stroke-width: 1.5; stroke-linecap: square"/>
    <defs>
     <path id="m7d0d60f459" d="M -0 3 
L 3 -3 
L -3 -3 
z
" style="stroke: #bf00bf; stroke-linejoin: miter"/>
    </defs>
    <g clip-path="url(#p630a0877a7)">
     <use xlink:href="#m7d0d60f459" x="138.436364" y="174.823625" style="fill: #bf00bf; stroke: #bf00bf; stroke-linejoin: miter"/>
     <use xlink:href="#m7d0d60f459" x="302.957248" y="89.28" style="fill: #bf00bf; stroke: #bf00bf; stroke-linejoin: miter"/>
    </g>
   </g>
   <g id="line2d_34">
    <path d="M 138.436364 174.823625 
L 140.098191 173.959548 
L 141.760018 173.095471 
L 143.421845 172.231394 
L 145.083672 171.367317 
L 146.745499 170.50324 
L 148.407326 169.639163 
L 150.069153 168.775086 
L 151.730981 167.911009 
L 153.392808 167.046932 
L 155.054635 166.182855 
L 156.716462 165.318778 
L 158.378289 164.454701 
L 160.040116 163.590624 
L 161.701943 162.726547 
L 163.36377 161.86247 
L 165.025597 160.998393 
L 166.687425 160.134316 
L 168.349252 159.270239 
L 170.011079 158.406162 
L 171.672906 157.542085 
L 173.334733 156.678008 
L 174.99656 155.813931 
L 176.658387 154.949854 
L 178.320214 154.085777 
L 179.982042 153.2217 
L 181.643869 152.357623 
L 183.305696 151.493546 
L 184.967523 150.629469 
L 186.62935 149.765391 
L 188.291177 148.901314 
L 189.953004 148.037237 
L 191.614831 147.17316 
L 193.276658 146.309083 
L 194.938486 145.445006 
L 196.600313 144.580929 
L 198.26214 143.716852 
L 199.923967 142.852775 
L 201.585794 141.988698 
L 203.247621 141.124621 
L 204.909448 140.260544 
L 206.571275 139.396467 
L 208.233103 138.53239 
L 209.89493 137.668313 
L 211.556757 136.804236 
L 213.218584 135.940159 
L 214.880411 135.076082 
L 216.542238 134.212005 
L 218.204065 133.347928 
L 219.865892 132.483851 
L 221.527719 131.619774 
L 223.189547 130.755697 
L 224.851374 129.89162 
L 226.513201 129.027543 
L 228.175028 128.163466 
L 229.836855 127.299389 
L 231.498682 126.435312 
L 233.160509 125.571235 
L 234.822336 124.707158 
L 236.484164 123.843081 
L 238.145991 122.979004 
L 239.807818 122.114927 
L 241.469645 121.25085 
L 243.131472 120.386773 
L 244.793299 119.522696 
L 246.455126 118.658619 
L 248.116953 117.794542 
L 249.77878 116.930465 
L 251.440608 116.066388 
L 253.102435 115.202311 
L 254.764262 114.338234 
L 256.426089 113.474157 
L 258.087916 112.61008 
L 259.749743 111.746003 
L 261.41157 110.881926 
L 263.073397 110.017849 
L 264.735224 109.153771 
L 266.397052 108.289694 
L 268.058879 107.425617 
L 269.720706 106.56154 
L 271.382533 105.697463 
L 273.04436 104.833386 
L 274.706187 103.969309 
L 276.368014 103.105232 
L 278.029841 102.241155 
L 279.691669 101.377078 
L 281.353496 100.513001 
L 283.015323 99.648924 
L 284.67715 98.784847 
L 286.338977 97.92077 
L 288.000804 97.056693 
L 289.662631 96.192616 
L 291.324458 95.328539 
L 292.986285 94.464462 
L 294.648113 93.600385 
L 296.30994 92.736308 
L 297.971767 91.872231 
L 299.633594 91.008154 
L 301.295421 90.144077 
L 302.957248 89.28 
" clip-path="url(#p630a0877a7)" style="fill: none; stroke-dasharray: 5.55,2.4; stroke-dashoffset: 0; stroke: #bf00bf; stroke-width: 1.5"/>
   </g>
   <g id="line2d_35">
    <path d="M 138.436364 169.494373 
L 302.957248 103.189538 
" clip-path="url(#p630a0877a7)" style="fill: none; stroke: #bfbf00; stroke-width: 1.5; stroke-linecap: square"/>
    <defs>
     <path id="m9db935b49d" d="M -3 -0 
L 3 3 
L 3 -3 
z
" style="stroke: #bfbf00; stroke-linejoin: miter"/>
    </defs>
    <g clip-path="url(#p630a0877a7)">
     <use xlink:href="#m9db935b49d" x="138.436364" y="169.494373" style="fill: #bfbf00; stroke: #bfbf00; stroke-linejoin: miter"/>
     <use xlink:href="#m9db935b49d" x="302.957248" y="103.189538" style="fill: #bfbf00; stroke: #bfbf00; stroke-linejoin: miter"/>
    </g>
   </g>
   <g id="line2d_36">
    <path d="M 138.436364 169.494373 
L 140.098191 168.824627 
L 141.760018 168.154881 
L 143.421845 167.485136 
L 145.083672 166.81539 
L 146.745499 166.145644 
L 148.407326 165.475898 
L 150.069153 164.806152 
L 151.730981 164.136407 
L 153.392808 163.466661 
L 155.054635 162.796915 
L 156.716462 162.127169 
L 158.378289 161.457423 
L 160.040116 160.787678 
L 161.701943 160.117932 
L 163.36377 159.448186 
L 165.025597 158.77844 
L 166.687425 158.108694 
L 168.349252 157.438949 
L 170.011079 156.769203 
L 171.672906 156.099457 
L 173.334733 155.429711 
L 174.99656 154.759965 
L 176.658387 154.09022 
L 178.320214 153.420474 
L 179.982042 152.750728 
L 181.643869 152.080982 
L 183.305696 151.411236 
L 184.967523 150.74149 
L 186.62935 150.071745 
L 188.291177 149.401999 
L 189.953004 148.732253 
L 191.614831 148.062507 
L 193.276658 147.392761 
L 194.938486 146.723016 
L 196.600313 146.05327 
L 198.26214 145.383524 
L 199.923967 144.713778 
L 201.585794 144.044032 
L 203.247621 143.374287 
L 204.909448 142.704541 
L 206.571275 142.034795 
L 208.233103 141.365049 
L 209.89493 140.695303 
L 211.556757 140.025558 
L 213.218584 139.355812 
L 214.880411 138.686066 
L 216.542238 138.01632 
L 218.204065 137.346574 
L 219.865892 136.676829 
L 221.527719 136.007083 
L 223.189547 135.337337 
L 224.851374 134.667591 
L 226.513201 133.997845 
L 228.175028 133.3281 
L 229.836855 132.658354 
L 231.498682 131.988608 
L 233.160509 131.318862 
L 234.822336 130.649116 
L 236.484164 129.979371 
L 238.145991 129.309625 
L 239.807818 128.639879 
L 241.469645 127.970133 
L 243.131472 127.300387 
L 244.793299 126.630642 
L 246.455126 125.960896 
L 248.116953 125.29115 
L 249.77878 124.621404 
L 251.440608 123.951658 
L 253.102435 123.281913 
L 254.764262 122.612167 
L 256.426089 121.942421 
L 258.087916 121.272675 
L 259.749743 120.602929 
L 261.41157 119.933184 
L 263.073397 119.263438 
L 264.735224 118.593692 
L 266.397052 117.923946 
L 268.058879 117.2542 
L 269.720706 116.584455 
L 271.382533 115.914709 
L 273.04436 115.244963 
L 274.706187 114.575217 
L 276.368014 113.905471 
L 278.029841 113.235725 
L 279.691669 112.56598 
L 281.353496 111.896234 
L 283.015323 111.226488 
L 284.67715 110.556742 
L 286.338977 109.886996 
L 288.000804 109.217251 
L 289.662631 108.547505 
L 291.324458 107.877759 
L 292.986285 107.208013 
L 294.648113 106.538267 
L 296.30994 105.868522 
L 297.971767 105.198776 
L 299.633594 104.52903 
L 301.295421 103.859284 
L 302.957248 103.189538 
" clip-path="url(#p630a0877a7)" style="fill: none; stroke-dasharray: 5.55,2.4; stroke-dashoffset: 0; stroke: #bfbf00; stroke-width: 1.5"/>
   </g>
   <g id="patch_3">
    <path d="M 108 512.64 
L 108 69.12 
" style="fill: none; stroke: #000000; stroke-width: 0.8; stroke-linejoin: miter; stroke-linecap: square"/>
   </g>
   <g id="patch_4">
    <path d="M 777.6 512.64 
L 777.6 69.12 
" style="fill: none; stroke: #000000; stroke-width: 0.8; stroke-linejoin: miter; stroke-linecap: square"/>
   </g>
   <g id="patch_5">
    <path d="M 108 512.64 
L 777.6 512.64 
" style="fill: none; stroke: #000000; stroke-width: 0.8; stroke-linejoin: miter; stroke-linecap: square"/>
   </g>
   <g id="patch_6">
    <path d="M 108 69.12 
L 777.6 69.12 
" style="fill: none; stroke: #000000; stroke-width: 0.8; stroke-linejoin: miter; stroke-linecap: square"/>
   </g>
   <g id="text_15">
    <!-- Mean Log Likelihood vs. Diversity Coefficient per Model Family -->
    <g transform="translate(255.405938 63.12) scale(0.12 -0.12)">
     <defs>
      <path id="DejaVuSans-2e" d="M 684 794 
L 1344 794 
L 1344 0 
L 684 0 
L 684 794 
z
" transform="scale(0.015625)"/>
      <path id="DejaVuSans-70" d="M 1159 525 
L 1159 -1331 
L 581 -1331 
L 581 3500 
L 1159 3500 
L 1159 2969 
Q 1341 3281 1617 3432 
Q 1894 3584 2278 3584 
Q 2916 3584 3314 3078 
Q 3713 2572 3713 1747 
Q 3713 922 3314 415 
Q 2916 -91 2278 -91 
Q 1894 -91 1617 61 
Q 1341 213 1159 525 
z
M 3116 1747 
Q 3116 2381 2855 2742 
Q 2594 3103 2138 3103 
Q 1681 3103 1420 2742 
Q 1159 2381 1159 1747 
Q 1159 1113 1420 752 
Q 1681 391 2138 391 
Q 2594 391 2855 752 
Q 3116 1113 3116 1747 
z
" transform="scale(0.015625)"/>
      <path id="DejaVuSans-46" d="M 628 4666 
L 3309 4666 
L 3309 4134 
L 1259 4134 
L 1259 2759 
L 3109 2759 
L 3109 2228 
L 1259 2228 
L 1259 0 
L 628 0 
L 628 4666 
z
" transform="scale(0.015625)"/>
      <path id="DejaVuSans-6d" d="M 3328 2828 
Q 3544 3216 3844 3400 
Q 4144 3584 4550 3584 
Q 5097 3584 5394 3201 
Q 5691 2819 5691 2113 
L 5691 0 
L 5113 0 
L 5113 2094 
Q 5113 2597 4934 2840 
Q 4756 3084 4391 3084 
Q 3944 3084 3684 2787 
Q 3425 2491 3425 1978 
L 3425 0 
L 2847 0 
L 2847 2094 
Q 2847 2600 2669 2842 
Q 2491 3084 2119 3084 
Q 1678 3084 1418 2786 
Q 1159 2488 1159 1978 
L 1159 0 
L 581 0 
L 581 3500 
L 1159 3500 
L 1159 2956 
Q 1356 3278 1631 3431 
Q 1906 3584 2284 3584 
Q 2666 3584 2933 3390 
Q 3200 3197 3328 2828 
z
" transform="scale(0.015625)"/>
     </defs>
     <use xlink:href="#DejaVuSans-4d"/>
     <use xlink:href="#DejaVuSans-65" x="86.279297"/>
     <use xlink:href="#DejaVuSans-61" x="147.802734"/>
     <use xlink:href="#DejaVuSans-6e" x="209.082031"/>
     <use xlink:href="#DejaVuSans-20" x="272.460938"/>
     <use xlink:href="#DejaVuSans-4c" x="304.248047"/>
     <use xlink:href="#DejaVuSans-6f" x="358.210938"/>
     <use xlink:href="#DejaVuSans-67" x="419.392578"/>
     <use xlink:href="#DejaVuSans-20" x="482.869141"/>
     <use xlink:href="#DejaVuSans-4c" x="514.65625"/>
     <use xlink:href="#DejaVuSans-69" x="570.369141"/>
     <use xlink:href="#DejaVuSans-6b" x="598.152344"/>
     <use xlink:href="#DejaVuSans-65" x="652.4375"/>
     <use xlink:href="#DejaVuSans-6c" x="713.960938"/>
     <use xlink:href="#DejaVuSans-69" x="741.744141"/>
     <use xlink:href="#DejaVuSans-68" x="769.527344"/>
     <use xlink:href="#DejaVuSans-6f" x="832.90625"/>
     <use xlink:href="#DejaVuSans-6f" x="894.087891"/>
     <use xlink:href="#DejaVuSans-64" x="955.269531"/>
     <use xlink:href="#DejaVuSans-20" x="1018.746094"/>
     <use xlink:href="#DejaVuSans-76" x="1050.533203"/>
     <use xlink:href="#DejaVuSans-73" x="1109.712891"/>
     <use xlink:href="#DejaVuSans-2e" x="1161.8125"/>
     <use xlink:href="#DejaVuSans-20" x="1193.599609"/>
     <use xlink:href="#DejaVuSans-44" x="1225.386719"/>
     <use xlink:href="#DejaVuSans-69" x="1302.388672"/>
     <use xlink:href="#DejaVuSans-76" x="1330.171875"/>
     <use xlink:href="#DejaVuSans-65" x="1389.351562"/>
     <use xlink:href="#DejaVuSans-72" x="1450.875"/>
     <use xlink:href="#DejaVuSans-73" x="1491.988281"/>
     <use xlink:href="#DejaVuSans-69" x="1544.087891"/>
     <use xlink:href="#DejaVuSans-74" x="1571.871094"/>
     <use xlink:href="#DejaVuSans-79" x="1611.080078"/>
     <use xlink:href="#DejaVuSans-20" x="1670.259766"/>
     <use xlink:href="#DejaVuSans-43" x="1702.046875"/>
     <use xlink:href="#DejaVuSans-6f" x="1771.871094"/>
     <use xlink:href="#DejaVuSans-65" x="1833.052734"/>
     <use xlink:href="#DejaVuSans-66" x="1894.576172"/>
     <use xlink:href="#DejaVuSans-66" x="1929.78125"/>
     <use xlink:href="#DejaVuSans-69" x="1964.986328"/>
     <use xlink:href="#DejaVuSans-63" x="1992.769531"/>
     <use xlink:href="#DejaVuSans-69" x="2047.75"/>
     <use xlink:href="#DejaVuSans-65" x="2075.533203"/>
     <use xlink:href="#DejaVuSans-6e" x="2137.056641"/>
     <use xlink:href="#DejaVuSans-74" x="2200.435547"/>
     <use xlink:href="#DejaVuSans-20" x="2239.644531"/>
     <use xlink:href="#DejaVuSans-70" x="2271.431641"/>
     <use xlink:href="#DejaVuSans-65" x="2334.908203"/>
     <use xlink:href="#DejaVuSans-72" x="2396.431641"/>
     <use xlink:href="#DejaVuSans-20" x="2437.544922"/>
     <use xlink:href="#DejaVuSans-4d" x="2469.332031"/>
     <use xlink:href="#DejaVuSans-6f" x="2555.611328"/>
     <use xlink:href="#DejaVuSans-64" x="2616.792969"/>
     <use xlink:href="#DejaVuSans-65" x="2680.269531"/>
     <use xlink:href="#DejaVuSans-6c" x="2741.792969"/>
     <use xlink:href="#DejaVuSans-20" x="2769.576172"/>
     <use xlink:href="#DejaVuSans-46" x="2801.363281"/>
     <use xlink:href="#DejaVuSans-61" x="2849.757812"/>
     <use xlink:href="#DejaVuSans-6d" x="2911.037109"/>
     <use xlink:href="#DejaVuSans-69" x="3008.449219"/>
     <use xlink:href="#DejaVuSans-6c" x="3036.232422"/>
     <use xlink:href="#DejaVuSans-79" x="3064.015625"/>
    </g>
   </g>
   <g id="legend_1">
    <g id="patch_7">
     <path d="M 627.051563 166.579375 
L 770.6 166.579375 
Q 772.6 166.579375 772.6 164.579375 
L 772.6 76.12 
Q 772.6 74.12 770.6 74.12 
L 627.051563 74.12 
Q 625.051563 74.12 625.051563 76.12 
L 625.051563 164.579375 
Q 625.051563 166.579375 627.051563 166.579375 
z
" style="fill: #ffffff; opacity: 0.8; stroke: #cccccc; stroke-linejoin: miter"/>
    </g>
    <g id="line2d_37">
     <path d="M 629.051563 82.218438 
L 639.051563 82.218438 
L 649.051563 82.218438 
" style="fill: none; stroke: #0000ff; stroke-width: 1.5; stroke-linecap: square"/>
     <g>
      <use xlink:href="#m1875b8f5ff" x="639.051563" y="82.218438" style="fill: #0000ff; stroke: #0000ff"/>
     </g>
    </g>
    <g id="text_16">
     <!-- LLama2 (R²=0.37) -->
     <g transform="translate(657.051563 85.718438) scale(0.1 -0.1)">
      <defs>
       <path id="DejaVuSans-28" d="M 1984 4856 
Q 1566 4138 1362 3434 
Q 1159 2731 1159 2009 
Q 1159 1288 1364 580 
Q 1569 -128 1984 -844 
L 1484 -844 
Q 1016 -109 783 600 
Q 550 1309 550 2009 
Q 550 2706 781 3412 
Q 1013 4119 1484 4856 
L 1984 4856 
z
" transform="scale(0.015625)"/>
       <path id="DejaVuSans-52" d="M 2841 2188 
Q 3044 2119 3236 1894 
Q 3428 1669 3622 1275 
L 4263 0 
L 3584 0 
L 2988 1197 
Q 2756 1666 2539 1819 
Q 2322 1972 1947 1972 
L 1259 1972 
L 1259 0 
L 628 0 
L 628 4666 
L 2053 4666 
Q 2853 4666 3247 4331 
Q 3641 3997 3641 3322 
Q 3641 2881 3436 2590 
Q 3231 2300 2841 2188 
z
M 1259 4147 
L 1259 2491 
L 2053 2491 
Q 2509 2491 2742 2702 
Q 2975 2913 2975 3322 
Q 2975 3731 2742 3939 
Q 2509 4147 2053 4147 
L 1259 4147 
z
" transform="scale(0.015625)"/>
       <path id="DejaVuSans-b2" d="M 838 2444 
L 2163 2444 
L 2163 2088 
L 294 2088 
L 294 2431 
Q 400 2528 597 2703 
Q 1672 3656 1672 3950 
Q 1672 4156 1509 4282 
Q 1347 4409 1081 4409 
Q 919 4409 728 4354 
Q 538 4300 313 4191 
L 313 4575 
Q 553 4663 761 4706 
Q 969 4750 1147 4750 
Q 1600 4750 1872 4544 
Q 2144 4338 2144 4000 
Q 2144 3566 1109 2678 
Q 934 2528 838 2444 
z
" transform="scale(0.015625)"/>
       <path id="DejaVuSans-3d" d="M 678 2906 
L 4684 2906 
L 4684 2381 
L 678 2381 
L 678 2906 
z
M 678 1631 
L 4684 1631 
L 4684 1100 
L 678 1100 
L 678 1631 
z
" transform="scale(0.015625)"/>
       <path id="DejaVuSans-33" d="M 2597 2516 
Q 3050 2419 3304 2112 
Q 3559 1806 3559 1356 
Q 3559 666 3084 287 
Q 2609 -91 1734 -91 
Q 1441 -91 1130 -33 
Q 819 25 488 141 
L 488 750 
Q 750 597 1062 519 
Q 1375 441 1716 441 
Q 2309 441 2620 675 
Q 2931 909 2931 1356 
Q 2931 1769 2642 2001 
Q 2353 2234 1838 2234 
L 1294 2234 
L 1294 2753 
L 1863 2753 
Q 2328 2753 2575 2939 
Q 2822 3125 2822 3475 
Q 2822 3834 2567 4026 
Q 2313 4219 1838 4219 
Q 1578 4219 1281 4162 
Q 984 4106 628 3988 
L 628 4550 
Q 988 4650 1302 4700 
Q 1616 4750 1894 4750 
Q 2613 4750 3031 4423 
Q 3450 4097 3450 3541 
Q 3450 3153 3228 2886 
Q 3006 2619 2597 2516 
z
" transform="scale(0.015625)"/>
       <path id="DejaVuSans-29" d="M 513 4856 
L 1013 4856 
Q 1481 4119 1714 3412 
Q 1947 2706 1947 2009 
Q 1947 1309 1714 600 
Q 1481 -109 1013 -844 
L 513 -844 
Q 928 -128 1133 580 
Q 1338 1288 1338 2009 
Q 1338 2731 1133 3434 
Q 928 4138 513 4856 
z
" transform="scale(0.015625)"/>
      </defs>
      <use xlink:href="#DejaVuSans-4c"/>
      <use xlink:href="#DejaVuSans-4c" x="55.712891"/>
      <use xlink:href="#DejaVuSans-61" x="111.425781"/>
      <use xlink:href="#DejaVuSans-6d" x="172.705078"/>
      <use xlink:href="#DejaVuSans-61" x="270.117188"/>
      <use xlink:href="#DejaVuSans-32" x="331.396484"/>
      <use xlink:href="#DejaVuSans-20" x="395.019531"/>
      <use xlink:href="#DejaVuSans-28" x="426.806641"/>
      <use xlink:href="#DejaVuSans-52" x="465.820312"/>
      <use xlink:href="#DejaVuSans-b2" x="535.302734"/>
      <use xlink:href="#DejaVuSans-3d" x="575.390625"/>
      <use xlink:href="#DejaVuSans-30" x="659.179688"/>
      <use xlink:href="#DejaVuSans-2e" x="722.802734"/>
      <use xlink:href="#DejaVuSans-33" x="754.589844"/>
      <use xlink:href="#DejaVuSans-37" x="818.212891"/>
      <use xlink:href="#DejaVuSans-29" x="881.835938"/>
     </g>
    </g>
    <g id="line2d_38">
     <path d="M 629.051563 96.896563 
L 639.051563 96.896563 
L 649.051563 96.896563 
" style="fill: none; stroke: #008000; stroke-width: 1.5; stroke-linecap: square"/>
     <g>
      <use xlink:href="#mea343c4b1a" x="639.051563" y="96.896563" style="fill: #008000; stroke: #008000; stroke-linejoin: miter"/>
     </g>
    </g>
    <g id="text_17">
     <!-- GPT2_51M (R²=1.00) -->
     <g transform="translate(657.051563 100.396563) scale(0.1 -0.1)">
      <defs>
       <path id="DejaVuSans-47" d="M 3809 666 
L 3809 1919 
L 2778 1919 
L 2778 2438 
L 4434 2438 
L 4434 434 
Q 4069 175 3628 42 
Q 3188 -91 2688 -91 
Q 1594 -91 976 548 
Q 359 1188 359 2328 
Q 359 3472 976 4111 
Q 1594 4750 2688 4750 
Q 3144 4750 3555 4637 
Q 3966 4525 4313 4306 
L 4313 3634 
Q 3963 3931 3569 4081 
Q 3175 4231 2741 4231 
Q 1884 4231 1454 3753 
Q 1025 3275 1025 2328 
Q 1025 1384 1454 906 
Q 1884 428 2741 428 
Q 3075 428 3337 486 
Q 3600 544 3809 666 
z
" transform="scale(0.015625)"/>
       <path id="DejaVuSans-5f" d="M 3263 -1063 
L 3263 -1509 
L -63 -1509 
L -63 -1063 
L 3263 -1063 
z
" transform="scale(0.015625)"/>
      </defs>
      <use xlink:href="#DejaVuSans-47"/>
      <use xlink:href="#DejaVuSans-50" x="77.490234"/>
      <use xlink:href="#DejaVuSans-54" x="137.792969"/>
      <use xlink:href="#DejaVuSans-32" x="198.876953"/>
      <use xlink:href="#DejaVuSans-5f" x="262.5"/>
      <use xlink:href="#DejaVuSans-35" x="312.5"/>
      <use xlink:href="#DejaVuSans-31" x="376.123047"/>
      <use xlink:href="#DejaVuSans-4d" x="439.746094"/>
      <use xlink:href="#DejaVuSans-20" x="526.025391"/>
      <use xlink:href="#DejaVuSans-28" x="557.8125"/>
      <use xlink:href="#DejaVuSans-52" x="596.826172"/>
      <use xlink:href="#DejaVuSans-b2" x="666.308594"/>
      <use xlink:href="#DejaVuSans-3d" x="706.396484"/>
      <use xlink:href="#DejaVuSans-31" x="790.185547"/>
      <use xlink:href="#DejaVuSans-2e" x="853.808594"/>
      <use xlink:href="#DejaVuSans-30" x="885.595703"/>
      <use xlink:href="#DejaVuSans-30" x="949.21875"/>
      <use xlink:href="#DejaVuSans-29" x="1012.841797"/>
     </g>
    </g>
    <g id="line2d_39">
     <path d="M 629.051563 111.852813 
L 639.051563 111.852813 
L 649.051563 111.852813 
" style="fill: none; stroke: #ff0000; stroke-width: 1.5; stroke-linecap: square"/>
     <g>
      <use xlink:href="#m81d788c82c" x="639.051563" y="111.852813" style="fill: #ff0000; stroke: #ff0000; stroke-linejoin: miter"/>
     </g>
    </g>
    <g id="text_18">
     <!-- GPT2_117M (R²=1.00) -->
     <g transform="translate(657.051563 115.352813) scale(0.1 -0.1)">
      <use xlink:href="#DejaVuSans-47"/>
      <use xlink:href="#DejaVuSans-50" x="77.490234"/>
      <use xlink:href="#DejaVuSans-54" x="137.792969"/>
      <use xlink:href="#DejaVuSans-32" x="198.876953"/>
      <use xlink:href="#DejaVuSans-5f" x="262.5"/>
      <use xlink:href="#DejaVuSans-31" x="312.5"/>
      <use xlink:href="#DejaVuSans-31" x="376.123047"/>
      <use xlink:href="#DejaVuSans-37" x="439.746094"/>
      <use xlink:href="#DejaVuSans-4d" x="503.369141"/>
      <use xlink:href="#DejaVuSans-20" x="589.648438"/>
      <use xlink:href="#DejaVuSans-28" x="621.435547"/>
      <use xlink:href="#DejaVuSans-52" x="660.449219"/>
      <use xlink:href="#DejaVuSans-b2" x="729.931641"/>
      <use xlink:href="#DejaVuSans-3d" x="770.019531"/>
      <use xlink:href="#DejaVuSans-31" x="853.808594"/>
      <use xlink:href="#DejaVuSans-2e" x="917.431641"/>
      <use xlink:href="#DejaVuSans-30" x="949.21875"/>
      <use xlink:href="#DejaVuSans-30" x="1012.841797"/>
      <use xlink:href="#DejaVuSans-29" x="1076.464844"/>
     </g>
    </g>
    <g id="line2d_40">
     <path d="M 629.051563 126.809063 
L 639.051563 126.809063 
L 649.051563 126.809063 
" style="fill: none; stroke: #00bfbf; stroke-width: 1.5; stroke-linecap: square"/>
     <g>
      <use xlink:href="#m5d9a2c22c0" x="639.051563" y="126.809063" style="fill: #00bfbf; stroke: #00bfbf; stroke-linejoin: miter"/>
     </g>
    </g>
    <g id="text_19">
     <!-- GPT2_204M (R²=1.00) -->
     <g transform="translate(657.051563 130.309063) scale(0.1 -0.1)">
      <use xlink:href="#DejaVuSans-47"/>
      <use xlink:href="#DejaVuSans-50" x="77.490234"/>
      <use xlink:href="#DejaVuSans-54" x="137.792969"/>
      <use xlink:href="#DejaVuSans-32" x="198.876953"/>
      <use xlink:href="#DejaVuSans-5f" x="262.5"/>
      <use xlink:href="#DejaVuSans-32" x="312.5"/>
      <use xlink:href="#DejaVuSans-30" x="376.123047"/>
      <use xlink:href="#DejaVuSans-34" x="439.746094"/>
      <use xlink:href="#DejaVuSans-4d" x="503.369141"/>
      <use xlink:href="#DejaVuSans-20" x="589.648438"/>
      <use xlink:href="#DejaVuSans-28" x="621.435547"/>
      <use xlink:href="#DejaVuSans-52" x="660.449219"/>
      <use xlink:href="#DejaVuSans-b2" x="729.931641"/>
      <use xlink:href="#DejaVuSans-3d" x="770.019531"/>
      <use xlink:href="#DejaVuSans-31" x="853.808594"/>
      <use xlink:href="#DejaVuSans-2e" x="917.431641"/>
      <use xlink:href="#DejaVuSans-30" x="949.21875"/>
      <use xlink:href="#DejaVuSans-30" x="1012.841797"/>
      <use xlink:href="#DejaVuSans-29" x="1076.464844"/>
     </g>
    </g>
    <g id="line2d_41">
     <path d="M 629.051563 141.765313 
L 639.051563 141.765313 
L 649.051563 141.765313 
" style="fill: none; stroke: #bf00bf; stroke-width: 1.5; stroke-linecap: square"/>
     <g>
      <use xlink:href="#m7d0d60f459" x="639.051563" y="141.765313" style="fill: #bf00bf; stroke: #bf00bf; stroke-linejoin: miter"/>
     </g>
    </g>
    <g id="text_20">
     <!-- GPT2_345M (R²=1.00) -->
     <g transform="translate(657.051563 145.265313) scale(0.1 -0.1)">
      <use xlink:href="#DejaVuSans-47"/>
      <use xlink:href="#DejaVuSans-50" x="77.490234"/>
      <use xlink:href="#DejaVuSans-54" x="137.792969"/>
      <use xlink:href="#DejaVuSans-32" x="198.876953"/>
      <use xlink:href="#DejaVuSans-5f" x="262.5"/>
      <use xlink:href="#DejaVuSans-33" x="312.5"/>
      <use xlink:href="#DejaVuSans-34" x="376.123047"/>
      <use xlink:href="#DejaVuSans-35" x="439.746094"/>
      <use xlink:href="#DejaVuSans-4d" x="503.369141"/>
      <use xlink:href="#DejaVuSans-20" x="589.648438"/>
      <use xlink:href="#DejaVuSans-28" x="621.435547"/>
      <use xlink:href="#DejaVuSans-52" x="660.449219"/>
      <use xlink:href="#DejaVuSans-b2" x="729.931641"/>
      <use xlink:href="#DejaVuSans-3d" x="770.019531"/>
      <use xlink:href="#DejaVuSans-31" x="853.808594"/>
      <use xlink:href="#DejaVuSans-2e" x="917.431641"/>
      <use xlink:href="#DejaVuSans-30" x="949.21875"/>
      <use xlink:href="#DejaVuSans-30" x="1012.841797"/>
      <use xlink:href="#DejaVuSans-29" x="1076.464844"/>
     </g>
    </g>
    <g id="line2d_42">
     <path d="M 629.051563 156.721563 
L 639.051563 156.721563 
L 649.051563 156.721563 
" style="fill: none; stroke: #bfbf00; stroke-width: 1.5; stroke-linecap: square"/>
     <g>
      <use xlink:href="#m9db935b49d" x="639.051563" y="156.721563" style="fill: #bfbf00; stroke: #bfbf00; stroke-linejoin: miter"/>
     </g>
    </g>
    <g id="text_21">
     <!-- GPT2_1.5B (R²=1.00) -->
     <g transform="translate(657.051563 160.221563) scale(0.1 -0.1)">
      <defs>
       <path id="DejaVuSans-42" d="M 1259 2228 
L 1259 519 
L 2272 519 
Q 2781 519 3026 730 
Q 3272 941 3272 1375 
Q 3272 1813 3026 2020 
Q 2781 2228 2272 2228 
L 1259 2228 
z
M 1259 4147 
L 1259 2741 
L 2194 2741 
Q 2656 2741 2882 2914 
Q 3109 3088 3109 3444 
Q 3109 3797 2882 3972 
Q 2656 4147 2194 4147 
L 1259 4147 
z
M 628 4666 
L 2241 4666 
Q 2963 4666 3353 4366 
Q 3744 4066 3744 3513 
Q 3744 3084 3544 2831 
Q 3344 2578 2956 2516 
Q 3422 2416 3680 2098 
Q 3938 1781 3938 1306 
Q 3938 681 3513 340 
Q 3088 0 2303 0 
L 628 0 
L 628 4666 
z
" transform="scale(0.015625)"/>
      </defs>
      <use xlink:href="#DejaVuSans-47"/>
      <use xlink:href="#DejaVuSans-50" x="77.490234"/>
      <use xlink:href="#DejaVuSans-54" x="137.792969"/>
      <use xlink:href="#DejaVuSans-32" x="198.876953"/>
      <use xlink:href="#DejaVuSans-5f" x="262.5"/>
      <use xlink:href="#DejaVuSans-31" x="312.5"/>
      <use xlink:href="#DejaVuSans-2e" x="376.123047"/>
      <use xlink:href="#DejaVuSans-35" x="407.910156"/>
      <use xlink:href="#DejaVuSans-42" x="471.533203"/>
      <use xlink:href="#DejaVuSans-20" x="540.136719"/>
      <use xlink:href="#DejaVuSans-28" x="571.923828"/>
      <use xlink:href="#DejaVuSans-52" x="610.9375"/>
      <use xlink:href="#DejaVuSans-b2" x="680.419922"/>
      <use xlink:href="#DejaVuSans-3d" x="720.507812"/>
      <use xlink:href="#DejaVuSans-31" x="804.296875"/>
      <use xlink:href="#DejaVuSans-2e" x="867.919922"/>
      <use xlink:href="#DejaVuSans-30" x="899.707031"/>
      <use xlink:href="#DejaVuSans-30" x="963.330078"/>
      <use xlink:href="#DejaVuSans-29" x="1026.953125"/>
     </g>
    </g>
   </g>
  </g>
 </g>
 <defs>
  <clipPath id="p630a0877a7">
   <rect x="108" y="69.12" width="669.6" height="443.52"/>
  </clipPath>
 </defs>
</svg>
